<svg xmlns="http://www.w3.org/2000/svg"
     width="30"
     height="30"
     viewBox="0 0 172 172"
     style=" fill:#000000;">
<g fill="none"
   fill-rule="nonzero"
   stroke="none"
   stroke-width="1"
   stroke-linecap="butt"
   stroke-linejoin="miter"
   stroke-miterlimit="10"
   style="mix-blend-mode: normal">
<path d="M0,172v-172h172v172z"
      fill="none" />
<g fill="#ffffff">
<path d="M34.4,28.66667c-6.33287,0 -11.46667,5.1338 -11.46667,11.46667c0,6.33287 5.1338,11.46667 11.46667,11.46667c6.33287,0 11.46667,-5.1338 11.46667,-11.46667c0,-6.33287 -5.1338,-11.46667 -11.46667,-11.46667zM68.8,34.4c-2.06765,-0.02924 -3.99087,1.05709 -5.03322,2.843c-1.04236,1.78592 -1.04236,3.99474 0,5.78066c1.04236,1.78592 2.96558,2.87225 5.03322,2.843h74.53333c2.06765,0.02924 3.99087,-1.05709 5.03322,-2.843c1.04236,-1.78592 1.04236,-3.99474 0,-5.78066c-1.04236,-1.78592 -2.96558,-2.87225 -5.03322,-2.843zM34.4,74.53333c-6.33287,0 -11.46667,5.1338 -11.46667,11.46667c0,6.33287 5.1338,11.46667 11.46667,11.46667c6.33287,0 11.46667,-5.1338 11.46667,-11.46667c0,-6.33287 -5.1338,-11.46667 -11.46667,-11.46667zM68.8,80.26667c-2.06765,-0.02924 -3.99087,1.05709 -5.03322,2.843c-1.04236,1.78592 -1.04236,3.99474 0,5.78066c1.04236,1.78592 2.96558,2.87225 5.03322,2.843h74.53333c2.06765,0.02924 3.99087,-1.05709 5.03322,-2.843c1.04236,-1.78592 1.04236,-3.99474 0,-5.78066c-1.04236,-1.78592 -2.96558,-2.87225 -5.03322,-2.843zM34.4,120.4c-6.33287,0 -11.46667,5.1338 -11.46667,11.46667c0,6.33287 5.1338,11.46667 11.46667,11.46667c6.33287,0 11.46667,-5.1338 11.46667,-11.46667c0,-6.33287 -5.1338,-11.46667 -11.46667,-11.46667zM68.8,126.13333c-2.06765,-0.02924 -3.99087,1.05709 -5.03322,2.843c-1.04236,1.78592 -1.04236,3.99474 0,5.78066c1.04236,1.78592 2.96558,2.87225 5.03322,2.843h74.53333c2.06765,0.02924 3.99087,-1.05709 5.03322,-2.843c1.04236,-1.78592 1.04236,-3.99474 0,-5.78066c-1.04236,-1.78592 -2.96558,-2.87225 -5.03322,-2.843z" />
</g>
</g>
</svg>