<svg xmlns="http://www.w3.org/2000/svg"
     width="30"
     height="30"
     viewBox="0 0 172 172"
     style=" fill:#000000;">
<g fill="none"
   fill-rule="nonzero"
   stroke-width="1"
   stroke-linecap="butt"
   stroke-linejoin="miter"
   stroke-miterlimit="10"
   style="mix-blend-mode: normal">
<path d="M0,172v-172h172v172z"
      fill="none" />
<g fill="#fff">
<path d="M34.4,22.93333c-6.33533,0 -11.46667,5.13133 -11.46667,11.46667v103.2c0,6.33533 5.13133,11.46667 11.46667,11.46667h103.2c6.33533,0 11.46667,-5.13133 11.46667,-11.46667v-103.2c0,-6.33533 -5.13133,-11.46667 -11.46667,-11.46667zM34.4,34.4h103.2v22.93333h-103.2zM83.99558,83.12214h14.25495v25.84479h5.03906v7.99532h-5.03906v6.56198h-9.71979v-6.56198h-19.82031v-8.5888c3.67507,-7.02907 8.31916,-14.6733 15.28516,-25.2513zM88.28438,90.45677c-3.44573,5.32053 -6.15895,9.90792 -10.69401,18.36458v0.5039h11.19792v-18.86849z" />
</g>
</g>
</svg>